<?xml version="1.0" standalone="no"?>
<!DOCTYPE svg PUBLIC "-//W3C//DTD SVG 20010904//EN"
 "http://www.w3.org/TR/2001/REC-SVG-20010904/DTD/svg10.dtd">
<svg version="1.0" xmlns="http://www.w3.org/2000/svg"
 width="512.000000pt" height="512.000000pt" viewBox="0 0 512.000000 512.000000"
 preserveAspectRatio="xMidYMid meet">
<metadata>
Created by potrace 1.11, written by Peter Selinger 2001-2013
</metadata>
<g transform="translate(0.000000,512.000000) scale(0.100000,-0.100000)"
fill="#000000" stroke="none">
<path d="M2015 5107 c-41 -19 -83 -70 -90 -111 -4 -18 -5 -119 -3 -224 3 -209
6 -217 72 -266 44 -33 132 -29 181 8 62 47 67 71 63 301 -3 221 -5 230 -69
277 -33 25 -115 32 -154 15z"/>
<path d="M667 4546 c-72 -26 -114 -97 -102 -175 6 -41 18 -57 143 -184 76 -76
153 -147 173 -157 74 -39 175 -3 210 74 42 93 24 128 -154 304 -80 78 -149
142 -153 142 -5 1 -25 3 -44 5 -19 3 -52 -2 -73 -9z"/>
<path d="M3395 4553 c-11 -3 -34 -15 -51 -28 -37 -28 -265 -260 -278 -283 -5
-8 -10 -36 -11 -61 -6 -112 97 -194 202 -161 50 16 297 257 324 317 40 87 -7
187 -100 213 -38 10 -53 11 -86 3z"/>
<path d="M1925 4150 c-22 -5 -58 -12 -80 -15 -60 -10 -177 -51 -257 -90 -303
-150 -519 -421 -599 -755 -18 -74 -23 -125 -24 -230 0 -184 16 -277 76 -426
16 -41 29 -76 29 -78 0 -1 -21 -4 -46 -5 -26 0 -79 -8 -118 -17 -39 -8 -81
-17 -94 -20 -13 -2 -57 -18 -100 -35 -256 -102 -463 -288 -585 -527 -44 -86
-90 -209 -101 -267 -3 -16 -9 -55 -15 -85 -14 -81 -6 -313 14 -395 54 -225
150 -399 305 -555 147 -146 317 -244 515 -295 92 -24 149 -30 280 -30 157 1
198 7 342 52 l51 16 49 -40 c154 -129 379 -243 585 -298 162 -42 226 -50 418
-50 192 0 295 16 471 71 163 50 410 186 525 286 33 29 38 31 67 20 115 -41
220 -57 372 -57 129 0 183 6 285 34 259 70 485 232 647 466 60 86 142 284 158
381 3 22 10 62 15 89 9 55 6 282 -5 330 -21 98 -27 121 -46 178 -54 157 -147
305 -269 427 -172 172 -388 281 -635 319 -33 5 -118 8 -189 7 l-128 -1 -48 60
c-64 80 -190 200 -284 270 -62 45 -265 166 -299 178 -5 1 -11 27 -13 57 -2 30
-6 71 -10 90 -3 19 -8 46 -10 60 -12 67 -59 199 -99 278 -155 302 -433 515
-768 588 -81 18 -320 26 -382 14z m349 -335 c147 -39 271 -111 372 -215 71
-73 106 -123 152 -218 29 -61 75 -201 68 -209 -1 -2 -43 3 -92 11 -132 20
-382 14 -512 -13 -323 -67 -578 -203 -817 -433 l-70 -67 -14 26 c-24 47 -60
159 -70 219 -10 61 -8 226 3 279 55 255 223 466 457 573 54 25 118 44 224 66
44 9 243 -3 299 -19z m466 -949 c14 -3 49 -10 78 -16 151 -28 357 -121 499
-226 135 -100 272 -254 349 -392 21 -37 33 -50 44 -46 111 47 331 65 450 37
333 -77 577 -332 629 -658 11 -73 8 -233 -7 -295 -40 -165 -110 -291 -226
-404 -59 -57 -163 -127 -239 -160 -221 -98 -524 -79 -718 45 -25 16 -49 29
-54 29 -4 0 -37 -30 -74 -67 -86 -87 -112 -109 -191 -165 -153 -107 -328 -178
-520 -213 -76 -14 -306 -13 -395 1 -260 41 -504 166 -698 358 l-90 88 -36 -21
c-215 -128 -470 -153 -703 -68 -200 73 -381 250 -457 447 -47 122 -59 189 -56
323 2 102 7 136 30 207 45 140 103 237 201 334 150 150 332 227 548 232 92 2
124 -2 214 -26 59 -16 107 -28 107 -27 105 204 312 418 515 532 131 74 312
136 440 151 30 3 57 8 59 10 6 5 274 -3 301 -10z"/>
<path d="M95 3186 c-41 -18 -83 -69 -90 -110 -14 -70 9 -126 69 -170 26 -20
41 -21 246 -21 240 0 244 1 294 69 30 40 31 125 3 167 -49 72 -56 74 -285 76
-157 2 -214 0 -237 -11z"/>
<path d="M3620 3189 c-99 -41 -130 -173 -58 -254 44 -51 77 -57 300 -53 215 3
223 5 272 72 29 38 29 134 0 173 -50 66 -56 68 -282 70 -123 1 -217 -2 -232
-8z"/>
</g>
</svg>
